<?xml version="1.0" encoding="UTF-8"?>
<svg id="Layer_2" data-name="Layer 2" xmlns="http://www.w3.org/2000/svg" viewBox="0 0 77.03 76.3">
  <defs>
    <style>
      .cls-1 {
        fill: #fff;
      }

      .cls-2 {
        fill: #ed1c24;
      }

      .cls-2, .cls-3 {
        fill-rule: evenodd;
      }

      .cls-3 {
        fill: #00a651;
      }

      .cls-4 {
        fill: none;
        stroke: #00a651;
        stroke-miterlimit: 2.61;
        stroke-width: 1px;
      }

      .cls-5 {
        fill: #231f20;
      }
    </style>
  </defs>
  <g id="Layer_1-2" data-name="Layer 1">
    <g>
      <ellipse class="cls-4" cx="38.52" cy="38.15" rx="38.02" ry="37.65"/>
      <path class="cls-2" d="M25.37,57.03c-.81-.14-1.65-.31-2.52-.51,7.17-2.76,13.21-6.86,17.09-13.56,4.39-8.84,2.91-16.59-1.79-23.75-5.06,4.5-7.53,11.4-3.74,21.98,3.56-3.98,3.88-8.57,4.37-13.23,2.11,6.91-.29,13.1-3.93,17.43-7.86-4.28-15.76-8.5-14.07-27.02,5.2,1.78,7.92,4.14,9.25,6.83-1.57-1.25-3.69-2.81-6.95-3.61-.89,7.34,2.28,15.02,8.71,19.91-.53-2.56-.94-4.49-1.47-7.04-2.63-2.58-3.47-5.57-4.15-8.6,.88,2.11,2.3,4.71,3.98,6.48,.59-6.85,3.48-12.65,7.82-17.14,3.56,4.64,5.96,9.17,6.82,13.55,2.23,11.48-4.97,21.87-15.12,26.75l-4.28,1.54Z"/>
      <path class="cls-3" d="M49.57,40.51c-1.11,2.38-1.9,4.65-5.02,7.68,4.81-2.51,9.07-5.69,8.76-14.44-6.5,1.36-9.28,6.99-9.48,12.42,1.81-.9,3.67-2.7,5.73-5.66"/>
      <path class="cls-3" d="M56.47,42.83c-1.45,1.14-2.67,2.32-5.59,3.26,3.81-.08,7.5-.74,10.08-6.33-4.51-1.17-8.04,1.49-9.89,4.84,1.42,0,3.16-.55,5.39-1.76"/>
      <path class="cls-5" d="M51.78,30.22v-3.31h.67l.79,2.34c.07,.22,.13,.38,.16,.49,.04-.12,.1-.3,.18-.53l.8-2.3h.59v3.31h-.43v-2.77l-.97,2.77h-.4l-.96-2.81v2.81h-.43Zm-1.98,0v-2.92h-1.1v-.39h2.64v.39h-1.1v2.92h-.44Z"/>
      <path class="cls-3" d="M58.15,50.41c-4.11,6.45-11.37,10.73-19.64,10.73s-15.53-4.28-19.64-10.73H2.56c5.13,14.78,19.29,25.4,35.96,25.4s30.82-10.62,35.96-25.4h-16.32Z"/>
      <path class="cls-1" d="M54.61,61.3l1.06-1.03,.58,.58c-.07-.82,.15-1.49,.67-1.99,.28-.27,.57-.45,.89-.53,.32-.09,.65-.08,1.01,.02-.04-.41,0-.78,.11-1.11,.11-.33,.29-.61,.54-.86,.32-.31,.65-.51,1-.59,.35-.09,.7-.06,1.05,.08,.26,.11,.59,.36,1,.77l2.72,2.74-1.14,1.11-2.43-2.45c-.42-.43-.73-.66-.94-.71-.27-.06-.51,.02-.73,.23-.16,.16-.26,.35-.31,.59-.04,.23,0,.47,.12,.72,.12,.25,.38,.57,.78,.98l2.04,2.06-1.14,1.11-2.33-2.35c-.41-.42-.7-.66-.86-.75-.16-.08-.31-.11-.46-.09-.15,.02-.29,.11-.44,.25-.18,.17-.29,.37-.33,.6-.05,.23-.02,.47,.1,.7,.12,.24,.38,.56,.78,.97l2.07,2.08-1.14,1.11-4.25-4.28Zm.32,6.46l-.41-.8c-.05,.38-.2,.74-.44,1.06-.24,.32-.54,.57-.9,.75-.36,.18-.73,.26-1.1,.25-.37-.02-.69-.14-.97-.36-.27-.22-.54-.59-.79-1.09l-1.71-3.4,1.44-.71,1.24,2.47c.38,.76,.64,1.21,.78,1.35,.14,.14,.3,.23,.49,.26,.19,.03,.39,0,.61-.11,.25-.12,.43-.3,.56-.52,.13-.23,.18-.46,.15-.69-.03-.23-.24-.74-.62-1.5l-1.14-2.27,1.44-.71,2.71,5.37-1.33,.66Zm-12.21,2.25l1.52-.58c.13,.29,.32,.49,.56,.6,.24,.11,.54,.13,.91,.05,.41-.09,.69-.23,.86-.42,.12-.13,.15-.29,.11-.46-.03-.12-.09-.21-.18-.27-.09-.06-.28-.09-.57-.09-1.33,0-2.18-.07-2.57-.23-.54-.21-.87-.6-1-1.17-.11-.51,0-.98,.32-1.41,.33-.44,.92-.75,1.77-.93,.81-.18,1.44-.18,1.9,0,.45,.18,.81,.5,1.07,.98l-1.42,.59c-.11-.21-.27-.36-.48-.44-.2-.08-.47-.09-.8-.02-.41,.09-.7,.21-.85,.37-.1,.11-.14,.23-.11,.35,.02,.11,.1,.19,.22,.25,.16,.07,.68,.11,1.56,.12,.88,0,1.51,.1,1.9,.31,.39,.2,.64,.55,.75,1.05,.12,.54,0,1.05-.37,1.54-.37,.49-.99,.83-1.88,1.02-.81,.18-1.48,.16-2.03-.06-.54-.22-.95-.59-1.22-1.12Zm-7.59,.48l1.61-.26c.07,.31,.21,.54,.42,.7,.21,.16,.5,.24,.88,.23,.42,0,.73-.08,.93-.24,.14-.11,.21-.25,.21-.42,0-.12-.04-.22-.12-.3-.08-.07-.26-.14-.54-.2-1.3-.27-2.12-.52-2.47-.75-.48-.32-.73-.77-.73-1.35,0-.52,.2-.96,.61-1.32,.41-.36,1.05-.54,1.92-.55,.83,0,1.45,.12,1.86,.38,.41,.26,.69,.66,.84,1.18l-1.51,.29c-.07-.23-.19-.41-.37-.53-.18-.12-.44-.18-.78-.18-.42,0-.72,.06-.91,.18-.12,.08-.18,.19-.18,.32,0,.11,.05,.21,.16,.29,.15,.1,.65,.25,1.5,.43,.86,.18,1.45,.41,1.8,.69,.34,.28,.51,.67,.51,1.18,0,.55-.22,1.03-.68,1.43-.46,.4-1.14,.6-2.05,.61-.83,0-1.48-.15-1.97-.48-.48-.33-.8-.77-.96-1.34Zm-3.53-1.76c-.21,.03-.55,.05-1,.06-.45,.01-.76,.05-.91,.11-.23,.11-.37,.27-.41,.49-.04,.22,0,.42,.14,.61,.13,.19,.33,.31,.58,.35,.29,.05,.57,0,.87-.13,.22-.11,.37-.26,.47-.45,.07-.12,.13-.38,.2-.75l.06-.31Zm-1.87-1.65l-1.38-.52c.27-.54,.62-.91,1.07-1.12,.45-.2,1.05-.23,1.83-.09,.71,.13,1.21,.31,1.53,.54,.31,.23,.52,.48,.61,.76,.09,.28,.08,.76-.05,1.44l-.36,1.82c-.1,.52-.14,.91-.14,1.16,0,.25,.05,.54,.14,.84l-1.56-.29c-.02-.11-.04-.28-.07-.49,0-.1-.02-.16-.02-.19-.32,.21-.64,.35-.97,.43-.33,.07-.67,.08-1.02,.01-.61-.11-1.07-.37-1.36-.76-.29-.4-.39-.85-.3-1.35,.06-.33,.2-.62,.41-.85,.21-.23,.47-.39,.79-.48,.32-.09,.76-.13,1.32-.13,.76,0,1.3-.04,1.6-.1l.03-.16c.06-.3,.02-.53-.1-.68-.13-.15-.4-.27-.81-.35-.28-.05-.51-.04-.69,.05-.18,.08-.34,.25-.49,.51Zm-7.29-1.57c-.25,.57-.34,1.03-.28,1.38,.09,.5,.34,.84,.76,1.02,.32,.14,.66,.12,1.01-.06,.35-.18,.65-.56,.91-1.15,.28-.63,.36-1.13,.25-1.51-.11-.38-.34-.64-.7-.8-.35-.15-.71-.14-1.06,.03-.35,.17-.65,.53-.89,1.09Zm-2.72,2.25l3.34-7.6,1.47,.63-1.2,2.74c.68-.32,1.33-.34,1.95-.07,.68,.29,1.13,.78,1.36,1.45,.23,.68,.15,1.47-.25,2.38-.41,.94-.96,1.57-1.63,1.88-.68,.31-1.33,.33-1.98,.05-.32-.14-.6-.35-.84-.64-.24-.29-.4-.64-.49-1.04l-.36,.81-1.37-.59Zm-1.83-4.84c-.2-.08-.5-.22-.91-.43-.4-.21-.69-.32-.85-.34-.26-.02-.46,.06-.6,.23-.14,.17-.2,.37-.18,.6,.02,.23,.14,.43,.34,.59,.22,.18,.5,.28,.82,.3,.24,.01,.45-.04,.63-.17,.12-.08,.3-.26,.55-.56l.2-.24Zm-.83-2.35l-.96-1.12c.5-.35,.99-.5,1.48-.46,.49,.04,1.04,.3,1.64,.8,.55,.45,.91,.85,1.07,1.2,.16,.35,.22,.67,.16,.96-.06,.29-.3,.7-.75,1.23l-1.2,1.42c-.34,.41-.57,.72-.69,.95-.12,.22-.22,.49-.29,.8l-1.23-1c.04-.11,.1-.26,.18-.46,.04-.09,.07-.15,.08-.18-.38,.03-.73,0-1.06-.09-.32-.1-.62-.25-.9-.48-.48-.39-.75-.83-.82-1.32-.06-.49,.07-.93,.4-1.32,.22-.26,.47-.44,.77-.55,.3-.1,.61-.11,.92-.04,.32,.08,.73,.25,1.22,.52,.67,.36,1.15,.59,1.45,.68l.1-.12c.2-.24,.28-.45,.24-.65-.03-.2-.21-.43-.54-.69-.22-.18-.43-.28-.62-.29-.19-.02-.42,.05-.67,.21Zm-7.25-2.06l5.59-4.1-1.48-1.98,1.14-.84,3.96,5.3-1.14,.84-1.47-1.97-5.59,4.1-1.01-1.35Z"/>
    </g>
  </g>
</svg>